<svg xmlns="http://www.w3.org/2000/svg" version="1.1" xmlns:xlink="http://www.w3.org/1999/xlink" xmlns:svgjs="http://svgjs.com/svgjs" id="Pattern1000SvgRootPreview" width="100%" height="100%"><defs><pattern x="0" y="0" width="1" height="1" patternUnits="userSpaceOnUse" id="Pattern1000Layer1"><g id="PatternRootContent1"><g id="Pattern1000Layer1background"><rect width="1" height="1" id="Pattern1000Background1" class="color_1 fill_color_1" fill="#d9ac84"></rect></g></g></pattern><pattern x="0" y="0" width="120" height="208" patternUnits="userSpaceOnUse" id="Pattern1000Layer2" patternTransform="matrix(0.5,0,0,0.5,0,0)"><g id="PatternRootContent2"><g id="Pattern1000Layer2Element3"><use xlink:href="#Pattern1000Element3" x="47.57752990722656" y="-119.54607391357422" transform="translate(120, -52) scale(1) translate(-120, 52) rotate(-1, 120, -52)"></use><use xlink:href="#Pattern1000Element3" x="-72.42247009277344" y="-119.54607391357422" transform="translate(0, -52) scale(1) translate(0, 52) rotate(-1, 0, -52)"></use><use xlink:href="#Pattern1000Element3" x="-12.422470092773438" y="-15.546073913574219" transform="translate(60, 52) scale(1) translate(-60, -52) rotate(-1, 60, 52)"></use><use xlink:href="#Pattern1000Element3" x="-132.42247009277344" y="-15.546073913574219" transform="translate(-60, 52) scale(1) translate(60, -52) rotate(-1, -60, 52)"></use><use xlink:href="#Pattern1000Element3" x="107.57752990722656" y="-15.546073913574219" transform="translate(180, 52) scale(1) translate(-180, -52) rotate(-1, 180, 52)"></use><use xlink:href="#Pattern1000Element3" x="47.57752990722656" y="88.45392608642578" transform="translate(120, 156) scale(1) translate(-120, -156) rotate(-1, 120, 156)"></use><use xlink:href="#Pattern1000Element3" x="-72.42247009277344" y="88.45392608642578" transform="translate(0, 156) scale(1) translate(0, -156) rotate(-1, 0, 156)"></use><use xlink:href="#Pattern1000Element3" x="-12.422470092773438" y="192.45392608642578" transform="translate(60, 260) scale(1) translate(-60, -260) rotate(-1, 60, 260)"></use><use xlink:href="#Pattern1000Element3" x="-12.422470092773438" y="192.45392608642578" transform="translate(60, 260) scale(1) translate(-60, -260) rotate(-1, 60, 260)"></use></g></g></pattern><symbol id="Pattern1000Element3"><g class="color_4 fill_color_4" fill="#8c4d4d"><g><path d="M94.617,97.5521469116211l-19.799,19.799l2.828,2.828L97.446,100.3801498413086l-2.828,-2.828Zm-2.828,-8.485l-19.799,19.799l2.828,2.828L94.617,91.89514923095703l-2.828,-2.828Zm8.485,19.799l-2.828,-2.828l-19.799,19.799l2.828,2.828L100.274,108.86614990234375Z"></path><path d="M73.687,132.26315307617188l-7.247,-27.046l-3.864,1.035L69.824,133.2991485595703l3.864,-1.036Zm8.763,1.794l-7.247,-27.046l-3.864,1.035L78.586,135.09214782714844l3.864,-1.035Zm-21.389,-2.551l3.864,-1.035l-7.247,-27.046l-3.864,1.035L61.061,131.50515747070312Z"></path><path d="M54.091,96.78215026855469l27.046,7.247l1.035,-3.864L55.127,92.91815185546875l-1.035,3.864Zm-5.934,6.692l27.046,7.247l1.035,-3.864L49.192,99.61015319824219l-1.035,3.864Zm12.904,-17.248l-1.035,3.864l27.046,7.247l1.035,-3.864L61.061,86.22615051269531Z"></path></g><g><path d="M57.534,101.77029418945312l-27.046,-7.247l-1.035,3.863L56.499,105.6337890625l1.035,-3.863Zm5.934,-6.692l-27.046,-7.247l-1.035,3.863L62.433,98.9417953491211l1.035,-3.863Zm-12.904,17.248l1.035,-3.863l-27.046,-7.247l-1.035,3.863L50.564,112.32627868652344Z"></path><path d="M17.008,100.99991607666016l19.799,-19.799l-2.828,-2.829L14.179,98.1718521118164l2.829,2.828Zm2.828,8.486l19.799,-19.799l-2.828,-2.829L17.008,106.65705871582031l2.828,2.829Zm-8.485,-19.799l2.828,2.829l19.799,-19.799l-2.828,-2.829L11.351,89.68614196777344Z"></path><path d="M37.938,66.28884887695312l7.247,27.046l3.864,-1.036L41.802,65.25342559814453l-3.864,1.036Zm-8.763,-1.793l7.247,27.046l3.864,-1.036L33.039,63.4602165222168l-3.864,1.036Zm21.389,2.551l-3.864,1.036l7.247,27.046l3.864,-1.036L50.564,67.04664611816406Z"></path></g><g><path d="M35.339,71.76422119140625l-7.247,-27.046l-3.863,1.035L31.476,72.79971313476562l3.863,-1.035Zm8.762,1.793l-7.247,-27.046l-3.863,1.035L40.238,74.59272003173828l3.863,-1.035Zm-21.389,-2.551l3.863,-1.035l-7.247,-27.046l-3.863,1.035L22.712,71.0062026977539Z"></path><path d="M15.743,36.28284454345703l27.046,7.247l1.036,-3.864L16.778,32.41878128051758l-1.035,3.864Zm-5.935,6.692l27.046,7.247l1.036,-3.864L10.844,39.110984802246094l-1.036,3.864Zm12.904,-17.248l-1.036,3.864l27.046,7.247l1.036,-3.864L22.713,25.727073669433594Z"></path><path d="M56.269,37.05278015136719l-19.799,19.799l2.829,2.828L59.098,39.88135528564453l-2.829,-2.828Zm-2.829,-8.485l-19.799,19.799l2.829,2.828L56.269,31.396141052246094l-2.829,-2.828Zm8.485,19.799l-2.829,-2.828l-19.799,19.799l2.829,2.828L61.926,48.366573333740234Z"></path></g><g><path d="M50.228,37.540000915527344l19.799,-19.799l-2.828,-2.828L47.399,34.71200180053711l2.828,2.828Zm2.828,8.485l19.799,-19.799l-2.828,-2.828L50.228,43.196998596191406l2.828,2.828Zm-8.485,-19.799l2.828,2.828l19.799,-19.799l-2.828,-2.828L44.571,26.22599983215332Z"></path><path d="M71.158,2.828998565673828l7.247,27.046l3.864,-1.035L75.021,1.792999267578125l-3.864,1.036Zm-8.763,-1.794l7.247,27.046l3.864,-1.035L66.259,5.684341886080802e-14l-3.864,1.035Zm21.389,2.551l-3.864,1.035l7.247,27.046l3.864,-1.035L83.784,3.5869979858398438Z"></path><path d="M90.754,38.310001373291016l-27.046,-7.247l-1.035,3.864L89.718,42.17399978637695l1.035,-3.864Zm5.934,-6.692l-27.046,-7.247l-1.035,3.864L95.653,35.481998443603516l1.035,-3.864Zm-12.904,17.248l1.035,-3.864l-27.046,-7.247l-1.035,3.864L83.784,48.86600112915039Z"></path></g><g><path d="M87.311,33.32185745239258l27.046,7.247l1.035,-3.863L88.346,29.45836639404297l-1.035,3.863Zm-5.934,6.692l27.046,7.247l1.035,-3.863L82.412,36.15035629272461l-1.035,3.863Zm12.904,-17.248l-1.035,3.863l27.046,7.247l1.035,-3.863L94.281,22.76587677001953Z"></path><path d="M127.837,34.09223556518555l-19.799,19.799l2.828,2.829L130.666,36.92030334472656l-2.829,-2.828Zm-2.828,-8.486l-19.799,19.799l2.828,2.829L127.837,28.435096740722656l-2.828,-2.829Zm8.485,19.799l-2.828,-2.829l-19.799,19.799l2.828,2.829L133.493,45.406009674072266Z"></path><path d="M106.907,68.80329895019531l-7.247,-27.046l-3.864,1.036L103.043,69.8387222290039l3.864,-1.036Zm8.763,1.793l-7.247,-27.046l-3.864,1.036L111.806,71.6319351196289l3.864,-1.036Zm-21.389,-2.551l3.864,-1.036l-7.247,-27.046l-3.864,1.036L94.281,68.04550170898438Z"></path></g><g><path d="M109.506,63.32793426513672l7.247,27.046l3.863,-1.035L113.369,62.29244613647461l-3.863,1.035Zm-8.762,-1.793l7.247,27.046l3.863,-1.035L104.607,60.49943542480469l-3.863,1.035Zm21.389,2.551l-3.863,1.035l7.247,27.046l3.863,-1.035L122.132,64.08595275878906Z"></path><path d="M129.101,98.80931091308594l-27.046,-7.247l-1.036,3.864L128.067,102.67337799072266l1.035,-3.864Zm5.936,-6.692l-27.046,-7.247l-1.036,3.864L134.001,95.98117065429688l1.036,-3.864Zm-12.904,17.248l1.036,-3.864l-27.046,-7.247l-1.036,3.864L122.132,109.36508178710938Z"></path><path d="M88.576,98.03937530517578l19.799,-19.799l-2.829,-2.828L85.747,95.21080017089844l2.829,2.828Zm2.829,8.485l19.799,-19.799l-2.829,-2.828L88.576,103.69601440429688l2.829,2.828Zm-8.485,-19.799l2.829,2.828l19.799,-19.799l-2.829,-2.828L82.919,86.7255859375Z"></path></g></g></symbol></defs><rect width="100%" height="100%" id="Pattern1000RctLayer1" fill="url(#Pattern1000Layer1)"></rect><rect width="100%" height="100%" id="Pattern1000RctLayer2" fill="url(#Pattern1000Layer2)"></rect></svg>